<svg xmlns="http://www.w3.org/2000/svg" width="128" height="128" viewBox="0 0 128 128">
  <!-- 背景（ダークブルー） -->
  <rect x="0" y="0" width="128" height="128" rx="28" ry="28" fill="#1e293b"/>
  
  <!-- 試験管本体（明るいグレー・単色） -->
  <rect x="52" y="28" width="24" height="32" fill="#64748b"/>
  <path d="M52 60 L38 96 Q38 108 48 108 L80 108 Q90 108 90 96 L76 60 Z" fill="#64748b"/>
  
  <!-- 液体（パープル・単色） -->
  <path d="M52 80 L42 100 Q42 108 48 108 L80 108 Q86 108 86 100 L76 80 Z" fill="#8b5cf6"/>
  
  <!-- 泡（白・単色） -->
  <circle cx="58" cy="94" r="3" fill="#ffffff"/>
  <circle cx="68" cy="90" r="2.5" fill="#ffffff"/>
  <circle cx="64" cy="100" r="2" fill="#ffffff"/>
  
  <!-- チェックマーク（白・太め） -->
  <path d="M58 92 L62 96 L70 88" stroke="#ffffff" stroke-width="3" stroke-linecap="round" stroke-linejoin="round" fill="none"/>
  
  <!-- スパークル（パープル・単色） -->
  <circle cx="96" cy="36" r="3" fill="#8b5cf6"/>
  <circle cx="32" cy="52" r="2.5" fill="#8b5cf6"/>
</svg>
