<svg xmlns="http://www.w3.org/2000/svg" width="24" height="24" viewBox="0 0 24 24" fill="none">
  <!-- testgen-agent view icon -->
  <path fill="currentColor" d="M9 2a1 1 0 0 0 0 2h1v5.586l-5.293 5.293A3 3 0 0 0 4 17v1a4 4 0 0 0 4 4h5a4 4 0 0 0 4-4v-1a3 3 0 0 0-.707-2.121L11 9.586V4h1a1 1 0 1 0 0-2H9Zm2.414 9 3.172 3.172c.27.27.414.636.414 1.01V18a2 2 0 0 1-2 2H8a2 2 0 0 1-2-2v-2.818c0-.374.145-.74.414-1.01L9.586 11h1.828Z"/>
  <path fill="currentColor" d="M19.707 11.293a1 1 0 0 1 0 1.414l-3.5 3.5a1 1 0 0 1-1.414 0l-1.5-1.5a1 1 0 1 1 1.414-1.414l.793.793 2.793-2.793a1 1 0 0 1 1.414 0Z"/>
</svg>
